<?xml version="1.0" encoding="UTF-8" standalone="no"?>
<!-- Created with Inkscape (http://www.inkscape.org/) -->

<svg
   version="1.1"
   id="svg1"
   width="1481.5867"
   height="251.96001"
   viewBox="0 0 1481.5867 251.96001"
   sodipodi:docname="OTH_Logo_1lineB_pos_b.eps"
   xmlns:inkscape="http://www.inkscape.org/namespaces/inkscape"
   xmlns:sodipodi="http://sodipodi.sourceforge.net/DTD/sodipodi-0.dtd"
   xmlns="http://www.w3.org/2000/svg"
   xmlns:svg="http://www.w3.org/2000/svg">
  <defs
     id="defs1" />
  <sodipodi:namedview
     id="namedview1"
     pagecolor="#ffffff"
     bordercolor="#000000"
     borderopacity="0.25"
     inkscape:showpageshadow="2"
     inkscape:pageopacity="0.0"
     inkscape:pagecheckerboard="0"
     inkscape:deskcolor="#d1d1d1">
    <inkscape:page
       x="0"
       y="0"
       inkscape:label="1"
       id="page1"
       width="1481.5867"
       height="251.96001"
       margin="0"
       bleed="0" />
  </sodipodi:namedview>
  <g
     id="g1"
     inkscape:groupmode="layer"
     inkscape:label="1">
    <g
       id="group-R5">
      <path
         id="path2"
         d="M 3775.82,0 H 0 V 1889.71 H 3775.82 V 0"
         style="fill:#231f20;fill-opacity:1;fill-rule:nonzero;stroke:none"
         transform="matrix(0.13333333,0,0,-0.13333333,0,251.96)" />
      <path
         id="path3"
         d="m 1579.65,1431.89 h 746.28 v 79.88 h -746.28 v -79.88"
         style="fill:#ffffff;fill-opacity:1;fill-rule:nonzero;stroke:none"
         transform="matrix(0.13333333,0,0,-0.13333333,0,251.96)" />
      <path
         id="path4"
         d="m 1912.85,377.941 h 79.88 v 934.129 h -79.88 V 377.941"
         style="fill:#ffffff;fill-opacity:1;fill-rule:nonzero;stroke:none"
         transform="matrix(0.13333333,0,0,-0.13333333,0,251.96)" />
      <path
         id="path5"
         d="m 2732.56,904.914 h 465.62 v 79.883 h -465.62 v -79.883"
         style="fill:#ffffff;fill-opacity:1;fill-rule:nonzero;stroke:none"
         transform="matrix(0.13333333,0,0,-0.13333333,0,251.96)" />
      <path
         id="path6"
         d="m 2532.85,377.941 h 79.88 V 1511.77 h -79.88 V 377.941"
         style="fill:#ffffff;fill-opacity:1;fill-rule:nonzero;stroke:none"
         transform="matrix(0.13333333,0,0,-0.13333333,0,251.96)" />
      <path
         id="path7"
         d="M 3318,1511.77 V 377.941 h 79.88 V 1511.77 H 3318"
         style="fill:#ffffff;fill-opacity:1;fill-rule:nonzero;stroke:none"
         transform="matrix(0.13333333,0,0,-0.13333333,0,251.96)" />
      <path
         id="path8"
         d="m 1328.75,1244.02 c 64.54,-82.63 103.14,-186.44 103.14,-299.168 0,-268.551 -218.49,-487.032 -487.035,-487.032 -112.726,0 -216.546,38.602 -299.171,103.141 L 588.652,503.93 c 97.352,-78.75 221.235,-125.989 356.203,-125.989 313.095,0 566.915,253.809 566.915,566.911 0,134.968 -47.25,258.848 -125.99,356.198 l -57.03,-57.03"
         style="fill:#ffffff;fill-opacity:1;fill-rule:nonzero;stroke:none"
         transform="matrix(0.13333333,0,0,-0.13333333,0,251.96)" />
      <path
         id="path9"
         d="m 944.855,1431.89 c 112.725,0 216.545,-38.6 299.165,-103.14 l 57.03,57.03 c -97.35,78.74 -221.23,125.99 -356.195,125.99 -313.097,0 -566.914,-253.82 -566.914,-566.918 0,-134.961 47.243,-258.84 125.989,-356.204 l 57.027,57.043 C 496.422,728.309 457.82,832.129 457.82,944.852 c 0,268.548 218.485,487.038 487.035,487.038"
         style="fill:#ffffff;fill-opacity:1;fill-rule:nonzero;stroke:none"
         transform="matrix(0.13333333,0,0,-0.13333333,0,251.96)" />
      <path
         id="path10"
         d="m 4356.75,744.621 h -128.78 v 170.238 h 128.78 c 37.4,0 60.71,-7.363 77.96,-24.621 15.65,-15.636 24.63,-37.687 24.63,-60.5 0,-22.797 -8.98,-44.847 -24.63,-60.5 -17.26,-17.258 -40.58,-24.617 -77.96,-24.617 z m 168.27,-357.949 h 89.27 l -217.7,289.687 10.57,1.813 c 26.91,4.609 48.05,14.148 68.54,30.93 36.77,29.75 57.84,73.707 57.84,120.636 0,46.922 -21.07,90.895 -57.81,120.649 -29.23,23.742 -64.57,34.328 -114.61,34.328 H 4153.76 V 386.672 h 74.21 v 288.109 h 79.67 l 1.96,-2.633 215.42,-285.476"
         style="fill:#231f20;fill-opacity:1;fill-rule:nonzero;stroke:none"
         transform="matrix(0.13333333,0,0,-0.13333333,0,251.96)" />
      <path
         id="path11"
         d="m 4834.74,386.672 h 344.86 v 69.84 h -270.65 v 218.269 h 200.8 v 69.84 h -200.8 v 170.238 h 261.92 v 69.856 H 4834.74 V 386.672"
         style="fill:#231f20;fill-opacity:1;fill-rule:nonzero;stroke:none"
         transform="matrix(0.13333333,0,0,-0.13333333,0,251.96)" />
      <path
         id="path12"
         d="m 5665.46,993.438 c -172.47,0 -302.52,-132.309 -302.52,-307.747 0,-178.332 130.53,-307.75 310.37,-307.75 87.03,0 177.53,42.84 230.92,109.231 v 257.449 h -248.81 v -69.84 h 174.61 V 508.352 l -1.94,-1.911 c -37.26,-37.269 -93.69,-58.66 -154.78,-58.66 -136.84,0 -236.16,100.059 -236.16,237.91 0,135.618 98.15,237.903 228.31,237.903 61.02,0 125.43,-25.895 165.17,-66.184 l 49.19,48.473 c -52.59,54.883 -132.46,87.555 -214.36,87.555"
         style="fill:#231f20;fill-opacity:1;fill-rule:nonzero;stroke:none"
         transform="matrix(0.13333333,0,0,-0.13333333,0,251.96)" />
      <path
         id="path13"
         d="m 6174.87,386.672 h 344.86 v 69.84 h -270.66 v 218.269 h 200.81 v 69.84 h -200.81 v 170.238 h 261.92 v 69.856 H 6174.87 V 386.672"
         style="fill:#231f20;fill-opacity:1;fill-rule:nonzero;stroke:none"
         transform="matrix(0.13333333,0,0,-0.13333333,0,251.96)" />
      <path
         id="path14"
         d="m 7219.08,386.672 h 51.45 v 598.043 h -74.2 V 524.172 l -11.63,14.187 -364.71,446.356 h -51.46 V 386.672 h 74.2 v 460.539 l 11.63,-14.199 364.72,-446.34"
         style="fill:#231f20;fill-opacity:1;fill-rule:nonzero;stroke:none"
         transform="matrix(0.13333333,0,0,-0.13333333,0,251.96)" />
      <path
         id="path15"
         d="m 7512.97,473.121 c 52.88,-61.41 125.55,-95.18 205,-95.18 107.69,0 182.9,70.18 182.9,170.68 0,55.57 -25.74,100.731 -76.5,134.219 -25.54,17.039 -56.98,30.351 -87.38,43.23 -63.92,27.078 -124.22,52.629 -124.22,108.91 0,58.176 54.24,88.614 107.81,88.614 38.31,0 75.65,-13.551 108.19,-39.223 l 43.28,53.57 c -45.98,36.829 -98.1,55.497 -154.96,55.497 -100.11,0 -178.54,-68.45 -178.54,-155.836 0,-53.59 24.46,-95.774 74.76,-128.981 25.06,-16.441 55.19,-28.883 84.31,-40.91 66.36,-27.422 129.04,-53.313 129.04,-121.711 0,-56 -48.61,-98.219 -113.06,-98.219 -69.53,0 -119.49,40.41 -149.74,75.489 l -50.89,-50.149"
         style="fill:#231f20;fill-opacity:1;fill-rule:nonzero;stroke:none"
         transform="matrix(0.13333333,0,0,-0.13333333,0,251.96)" />
      <path
         id="path16"
         d="m 8335.21,744.621 h -111.32 v 170.238 h 111.32 c 45.64,0 71.34,-7.972 88.71,-27.507 14.77,-15.75 22.6,-35.692 22.6,-57.614 0,-21.91 -7.85,-41.879 -22.72,-57.738 -17.26,-19.43 -42.95,-27.379 -88.59,-27.379 z m 27.93,-288.109 h -139.25 v 218.269 h 139.25 c 50.92,0 81.36,-9.672 105.03,-33.371 19.84,-20.801 30.74,-47.539 30.74,-75.332 0,-28.348 -10.88,-55.387 -30.63,-76.117 -23.77,-23.77 -54.22,-33.449 -105.14,-33.449 z m -213.46,-69.84 h 229.18 c 56.69,0 96.59,12.18 129.39,39.508 41.23,33.351 64.86,83.058 64.86,136.41 0,63.64 -38.89,125.84 -96.78,154.781 l -8.39,4.207 6.84,6.434 c 28.77,27.019 45.95,66.027 45.95,104.347 0,42.481 -17.68,83.043 -48.51,111.297 -30.81,28.012 -69.36,41.059 -121.3,41.059 H 8149.68 V 386.672"
         style="fill:#231f20;fill-opacity:1;fill-rule:nonzero;stroke:none"
         transform="matrix(0.13333333,0,0,-0.13333333,0,251.96)" />
      <path
         id="path17"
         d="M 8804.48,984.715 V 633.301 c 0,-73.789 20.28,-131.742 62,-177.16 46.2,-49.692 113.5,-78.2 184.63,-78.2 71.13,0 138.43,28.52 184.66,78.239 41.71,45.39 61.98,103.332 61.98,177.121 v 351.414 h -74.21 V 628.93 c 0,-55.649 -12.37,-94.16 -40.1,-124.852 -32.57,-36.297 -79.57,-56.297 -132.33,-56.297 -52.76,0 -99.75,20 -132.34,56.321 -27.71,30.679 -40.08,69.179 -40.08,124.828 v 355.785 h -74.21"
         style="fill:#231f20;fill-opacity:1;fill-rule:nonzero;stroke:none"
         transform="matrix(0.13333333,0,0,-0.13333333,0,251.96)" />
      <path
         id="path18"
         d="m 9784.48,744.621 h -128.79 v 170.238 h 128.79 c 37.39,0 60.71,-7.363 77.95,-24.621 15.65,-15.629 24.63,-37.687 24.63,-60.5 0,-22.797 -8.98,-44.859 -24.63,-60.5 -17.25,-17.258 -40.57,-24.617 -77.95,-24.617 z m 168.26,-357.949 h 89.26 l -217.7,289.687 10.58,1.813 c 26.91,4.609 48.05,14.148 68.54,30.93 36.77,29.75 57.85,73.707 57.85,120.636 0,46.922 -21.07,90.895 -57.81,120.649 -29.23,23.742 -64.58,34.328 -114.62,34.328 H 9581.49 V 386.672 h 74.2 v 288.109 h 79.67 l 1.96,-2.621 215.42,-285.488"
         style="fill:#231f20;fill-opacity:1;fill-rule:nonzero;stroke:none"
         transform="matrix(0.13333333,0,0,-0.13333333,0,251.96)" />
      <path
         id="path19"
         d="m 10495.1,993.438 c -172.4,0 -302.5,-132.309 -302.5,-307.747 0,-178.332 130.6,-307.75 310.4,-307.75 87,0 177.5,42.84 230.9,109.231 v 257.449 h -248.8 v -69.84 h 174.6 V 508.352 l -1.9,-1.911 c -37.3,-37.269 -93.7,-58.66 -154.8,-58.66 -136.8,0 -236.2,100.059 -236.2,237.91 0,135.618 98.2,237.903 228.3,237.903 61.1,0 125.5,-25.895 165.2,-66.184 l 49.2,48.473 c -52.6,54.883 -132.5,87.555 -214.4,87.555"
         style="fill:#231f20;fill-opacity:1;fill-rule:nonzero;stroke:none"
         transform="matrix(0.13333333,0,0,-0.13333333,0,251.96)" />
    </g>
  </g>
</svg>
