<?xml version="1.0" encoding="UTF-8"?><svg id="a" xmlns="http://www.w3.org/2000/svg" viewBox="0 0 785.63 184.55"><path d="M180.15,144.19l21.84-65.48h20.79l22.5,65.48h-17.4l-4.44-13.93h-21.8l-4.26,13.93h-17.23ZM205.29,118.4h14.37l-.88-2.81c-1.14-3.75-2.26-7.67-3.34-11.78-1.08-4.1-2.15-8.35-3.21-12.74-1,4.42-1.98,8.69-2.97,12.79-.98,4.1-2.01,8.01-3.1,11.73l-.88,2.81Z"/><path d="M315.44,144.19v-65.48h15.51v52.82h27.38v12.66h-42.89Z"/><path d="M427.1,144.19v-8.88l25.44-35.07c1.11-1.52,2.3-3.04,3.56-4.55,1.26-1.51,2.56-3.01,3.91-4.5-2.02.09-4.05.14-6.09.15-2.04.01-4.08.02-6.13.02h-20.74v-12.66h51.55v8.92l-24.96,34.41c-1.17,1.61-2.44,3.23-3.8,4.86-1.36,1.63-2.76,3.25-4.2,4.86,2.23-.12,4.45-.18,6.68-.2,2.23-.01,4.45-.02,6.68-.02h19.64v12.66h-51.55Z"/><path d="M547.12,131.65v-6.81l28.65-45.35h10.15v44.82h8.88v7.34h-8.88v13.32h-8v-13.32h-30.81ZM577.97,124.31v-34.37h-.53l-21.4,33.84v.53h21.93Z"/><path d="M609.92,145.53c-1.64,0-3.04-.58-4.2-1.74s-1.74-2.56-1.74-4.2.58-3.04,1.74-4.2c1.16-1.16,2.56-1.74,4.2-1.74s3.04.58,4.2,1.74c1.16,1.16,1.74,2.56,1.74,4.2s-.58,3.04-1.74,4.2c-1.16,1.16-2.56,1.74-4.2,1.74Z"/><path d="M693.99,145.84c-7.29,0-12.96-2.93-16.98-8.79-4.03-5.86-6.04-14.12-6.04-24.79s2.03-18.87,6.09-24.79c4.06-5.92,9.7-8.88,16.94-8.88s12.92,2.96,16.96,8.88,6.06,14.18,6.06,24.79-2.01,18.93-6.02,24.79-9.68,8.79-17.01,8.79ZM693.99,138.55c4.8,0,8.5-2.31,11.1-6.92,2.59-4.61,3.89-11.07,3.89-19.36s-1.3-14.84-3.89-19.47c-2.59-4.63-6.29-6.94-11.1-6.94s-8.47,2.32-11.07,6.97c-2.61,4.64-3.91,11.12-3.91,19.45s1.3,14.74,3.91,19.36c2.61,4.62,6.3,6.92,11.07,6.92Z"/><path d="M64.56,144.19l-18.4-65.48h18.07l6.79,28.96c.68,3.08,1.3,6.4,1.87,9.98s1.13,7.1,1.69,10.59c.58-3.49,1.19-7.02,1.83-10.59.63-3.57,1.33-6.9,2.1-9.98l7.3-28.96h16.59l7.26,28.96c.77,3.05,1.46,6.34,2.08,9.89.62,3.54,1.23,7.05,1.85,10.5.52-3.46,1.08-6.96,1.66-10.5.58-3.54,1.22-6.84,1.9-9.89l6.8-28.96h18.07l-18.4,65.48h-18.49l-8.04-30.23c-.65-2.4-1.21-4.94-1.69-7.6-.48-2.67-.93-5.39-1.36-8.17-.43,2.72-.86,5.42-1.29,8.09-.43,2.67-.97,5.23-1.62,7.69l-8.04,30.23h-18.54Z"/><rect x="38.79" y="38.71" width="107.72" height="14.17"/><rect x="158.85" y="38.71" width="107.72" height="14.17"/><rect x="278.92" y="38.71" width="107.72" height="14.17"/><rect x="398.99" y="38.71" width="107.72" height="14.17"/><rect x="519.06" y="38.71" width="107.72" height="14.17"/><rect x="639.13" y="38.71" width="107.72" height="14.17"/></svg>